<svg version="1.1" id="Layer_1" xmlns="http://www.w3.org/2000/svg" xmlns:xlink="http://www.w3.org/1999/xlink" x="0px" y="0px" viewBox="0 0 165.2 165.2" style="enable-background:new 0 0 165.2 165.2;" xml:space="preserve">
 <style type="text/css">
  .st0{fill:#790008;}
	.st1{fill:#FFFFFF;}
	.st2{fill:#ED3024;}
 </style>
 <g>
  <g id="_x23_790008ff">
   <path class="st0" d="M0,0h165.2c0,55.1,0,110.2,0,165.2c-55.1,0-110.2,0-165.2,0V0 M22,31c12.9,17.2,25.9,34.3,38.8,51.5
			C48,99.7,34.9,116.7,22.1,133.9c29.3,0.1,58.7,0,88,0.1c13.2-17.1,25.9-34.5,39.2-51.5l-0.2,0c-12.9-17.2-26-34.3-38.9-51.5
			C80.8,31,51.4,31,22,31z">
   </path>
  </g>
  <g id="_x23_ffffffff">
   <path class="st1" d="M22,31c29.4-0.1,58.7,0,88.1,0c12.9,17.2,25.9,34.3,38.9,51.5c-29.4,0.1-58.8,0-88.2,0
			C47.9,65.3,34.9,48.2,22,31z">
   </path>
  </g>
  <g id="_x23_ed3024ff">
   <path class="st2" d="M60.8,82.5c29.4,0,58.8,0,88.2,0l0.2,0c-13.3,17-26,34.5-39.2,51.5c-29.3-0.1-58.7,0.1-88-0.1
			C34.9,116.7,48,99.7,60.8,82.5z">
   </path>
  </g>
 </g>
</svg>